# xmcd CD database file
#
# Track frame offsets:
#	151
#	30765
#	66342
#	103171
#	154263
#	189838
#	226828
#	267232
#	286526
#
# Disc length: 4457 seconds
#
# Revision: 0
# Processed by: cddbd v1.5PL3 Copyright (c) Steve Scherf et al.
# Submitted via: CDex 1.51
#
DISCID=6a116709
DTITLE=Various Artist - Visionfest Visionlive
DYEAR=2003
DGENRE=Jazz
TTITLE0=Muntu - Truth Is Marching In
TTITLE1=Dave Burrell and Tyron Brown - Existence
TTITLE2=Billy Bang Trio - Bangart 100
TTITLE3=Douglas Ewart Quintet - Crepuscule IV in Powderhorn Park
TTITLE4=Matthew Shipp String Trio - Speech Of Form
TTITLE5=Karen Borca Quartet - 45 hours
TTITLE6=Ellen Christi Quartet - Synchronicity
TTITLE7=Kidd Jordan and Fred Anderson Quartet - Spirts Came In
TTITLE8=Peter Kowald - Improvisation
EXTD=YEAR: 2003
EXTT0=
EXTT1=
EXTT2=
EXTT3=
EXTT4=
EXTT5=
EXTT6=
EXTT7=
EXTT8=
PLAYORDER=
